<svg xmlns="http://www.w3.org/2000/svg" viewBox="0 0 240 240">
<defs><radialGradient id="g" cx="50%" cy="45%" r="55%"><stop offset="0" stop-color="#22D3EE" stop-opacity=".9"/><stop offset="1" stop-color="#22D3EE" stop-opacity="0"/></radialGradient>
<radialGradient id="b" cx="50%" cy="35%" r="70%"><stop offset="0" stop-color="#155E75"/><stop offset="1" stop-color="#0B1B4A"/></radialGradient></defs>
<rect width="240" height="240" fill="#0B1630"/>
<circle cx="120" cy="120" r="112" fill="url(#g)"/>
<circle cx="120" cy="120" r="92" fill="url(#b)" stroke="#FFC928" stroke-width="8"/>
<path d="M28 84 A100 100 0 0 1 64 36" fill="none" stroke="#FFC928" stroke-width="6" stroke-linecap="round"/>
<path d="M212 156 A100 100 0 0 1 176 204" fill="none" stroke="#FFC928" stroke-width="6" stroke-linecap="round"/>
<g transform="rotate(-24 120 140)"><rect x="30" y="58" width="68" height="96" rx="9" fill="#14306E" stroke="#FFC928" stroke-width="4"/><rect x="38" y="66" width="52" height="80" rx="5" fill="#06B6D4" opacity=".55"/><circle cx="64" cy="106" r="13" fill="none" stroke="#FFFFFF" stroke-opacity=".5" stroke-width="4"/></g><g transform="rotate(24 120 140)"><rect x="142" y="58" width="68" height="96" rx="9" fill="#14306E" stroke="#FFC928" stroke-width="4"/><rect x="150" y="66" width="52" height="80" rx="5" fill="#06B6D4" opacity=".55"/><circle cx="176" cy="106" r="13" fill="none" stroke="#FFFFFF" stroke-opacity=".5" stroke-width="4"/></g>
<g transform="translate(120 122)"><circle r="52" fill="#0A2530" stroke="#FFC928" stroke-width="7"/><polygon points="0,-44 22,-10 0,44 -22,-10" fill="#A5F3FC" stroke="#FFFFFF" stroke-width="5" stroke-linejoin="round"/><polygon points="0,-44 22,-10 0,-2 -22,-10" fill="#FFFFFF" opacity=".7"/><line x1="0" y1="-2" x2="0" y2="44" stroke="#FFFFFF" stroke-width="3"/></g>
</svg>
