<svg xmlns="http://www.w3.org/2000/svg" viewBox="0 0 240 240">
<defs><radialGradient id="g" cx="50%" cy="45%" r="55%"><stop offset="0" stop-color="#94A3B8" stop-opacity=".9"/><stop offset="1" stop-color="#94A3B8" stop-opacity="0"/></radialGradient>
<radialGradient id="b" cx="50%" cy="35%" r="70%"><stop offset="0" stop-color="#334155"/><stop offset="1" stop-color="#0B1B4A"/></radialGradient></defs>
<rect width="240" height="240" fill="#0B1630"/>
<circle cx="120" cy="120" r="112" fill="url(#g)"/>
<circle cx="120" cy="120" r="92" fill="url(#b)" stroke="#FFC928" stroke-width="8"/>
<path d="M28 84 A100 100 0 0 1 64 36" fill="none" stroke="#FFC928" stroke-width="6" stroke-linecap="round"/>
<path d="M212 156 A100 100 0 0 1 176 204" fill="none" stroke="#FFC928" stroke-width="6" stroke-linecap="round"/>
<g transform="rotate(-24 120 140)"><rect x="30" y="58" width="68" height="96" rx="9" fill="#14306E" stroke="#FFC928" stroke-width="4"/><rect x="38" y="66" width="52" height="80" rx="5" fill="#64748B" opacity=".55"/><circle cx="64" cy="106" r="13" fill="none" stroke="#FFFFFF" stroke-opacity=".5" stroke-width="4"/></g><g transform="rotate(24 120 140)"><rect x="142" y="58" width="68" height="96" rx="9" fill="#14306E" stroke="#FFC928" stroke-width="4"/><rect x="150" y="66" width="52" height="80" rx="5" fill="#64748B" opacity=".55"/><circle cx="176" cy="106" r="13" fill="none" stroke="#FFFFFF" stroke-opacity=".5" stroke-width="4"/></g>
<g transform="translate(120 122)"><circle r="52" fill="#020617" stroke="#FFC928" stroke-width="7"/><circle r="22" fill="#FFFFFF"/><ellipse rx="42" ry="11" fill="none" stroke="#FFC928" stroke-width="6" transform="rotate(-20)"/><path d="M-40 7 A42 11 -20 0 0 40 -7" fill="none" stroke="#020617" stroke-width="0"/><polygon points="0.0,-6.0 1.5,-2.0 5.7,-1.9 2.4,0.8 3.5,4.9 0.0,2.5 -3.5,4.9 -2.4,0.8 -5.7,-1.9 -1.5,-2.0" transform="translate(-30 -30)" fill="#FFFFFF"/><polygon points="0.0,-5.0 1.2,-1.6 4.8,-1.5 1.9,0.6 2.9,4.0 0.0,2.0 -2.9,4.0 -1.9,0.6 -4.8,-1.5 -1.2,-1.6" transform="translate(32 28)" fill="#FFFFFF"/></g>
</svg>
